<svg xmlns="http://www.w3.org/2000/svg" width="250" height="250" version="1.0"><path d="M110.37 241.703c-27.132-3.396-50.69-15.361-70.214-35.663C18.377 183.393 7.958 157.41 7.958 125.75c0-33.378 12.01-61.277 36.382-84.518C66.797 19.82 92.851 9.46 124.25 9.46c31.397 0 57.452 10.36 79.908 31.773 24.373 23.241 36.383 51.14 36.383 84.518 0 33.379-12.01 61.277-36.383 84.518-16.43 15.667-34.873 25.296-57.34 29.936-9.375 1.937-27.118 2.666-36.448 1.498z" style="fill:#ffcb00;fill-opacity:1;stroke:#fff;stroke-width:6;stroke-opacity:1"/><path d="m76.27 69.466-37.046 28.69 12.728 15.963 21.471-16.914v94.623h25.078V69.466H76.27z" style="font-size:11px;font-style:normal;font-variant:normal;font-weight:700;font-stretch:normal;writing-mode:lr-tb;text-anchor:start;fill:#000;fill-opacity:1;stroke:none;stroke-width:1px;stroke-linecap:butt;stroke-linejoin:miter;stroke-opacity:1;font-family:UnDotum"/><path d="M201.355 189.279c-.124-6.587-1.167-12.192-3.13-16.815-1.965-4.624-4.593-8.454-7.887-11.493-3.166-2.914-6.807-5.132-10.924-6.653-4.117-1.521-8.202-2.344-12.257-2.467-4.307-.256-8.107.029-11.4.852-3.293.823-5.827 1.678-7.602 2.563l.192-29.636h48.828v-19.192H124.22l-.574 69.73h19.76c.635-1.267 3.042-2.787 7.222-4.56 4.181-1.772 8.867-1.456 14.059.948 1.774.762 3.326 1.681 4.656 2.758a19.526 19.526 0 0 1 3.513 3.702 17.378 17.378 0 0 1 2.28 5.038c.505 1.837.759 3.831.759 5.984.127 3.928-.442 7.221-1.708 9.88-1.266 2.66-3.04 4.877-5.32 6.651-2.408 1.775-5.259 3.074-8.552 3.897-3.294.823-7.03 1.235-11.209 1.235-5.574 0-10.546-.729-14.916-2.186-4.37-1.457-8.138-2.82-11.304-4.088l-.191 22.04c4.182.889 8.965 1.681 14.348 2.377 5.383.696 10.544 1.044 15.484 1.044 8.996 0 16.628-1.109 22.898-3.326s11.367-5.225 15.29-9.025c3.8-3.672 6.555-8.042 8.266-13.11 1.71-5.068 2.502-10.45 2.374-16.148z" style="font-size:11px;font-style:normal;font-variant:normal;font-weight:700;font-stretch:normal;writing-mode:lr-tb;text-anchor:start;fill:#000;fill-opacity:1;stroke:none;stroke-width:1px;stroke-linecap:butt;stroke-linejoin:miter;stroke-opacity:1;font-family:UnDotum" transform="translate(-1.664 -36.688)"/></svg>