<svg xmlns="http://www.w3.org/2000/svg" width="40mm" height="40mm" viewBox="0 0 40 40"><path d="M-3.447 194.174v-105h105v105h-105z" style="fill:#fae100" transform="translate(1.313 -33.971) scale(.38095)"/><path d="M-2.002 56.155h-4.284l-3.074-9.687h3.297l1.733 5.682h.372l1.733-5.682h3.297Zm-8.418-6.707h-2.669v3.726h2.669v2.98H-13.487c-1.467 0-2.862-1.37-2.862-2.861v-3.845h-1.697v-2.98h1.697v-2.981h3.26v2.98h2.669zm1.58-12.547c-7.771 0-14.071 5.828-14.071 13.016 0 5.31 2.224 7.844 5.269 10.154l.015.006v6.23c0 .295.335.463.57.288l5.337-3.964.115.05c.894.165 1.819.252 2.766.252 7.771 0 14.071-5.828 14.071-13.016s-6.3-13.016-14.071-13.016z" style="fill:#1e1e1e" transform="matrix(.85195 0 0 .85195 27.533 -23.187)"/></svg>